<?xml version="1.0" encoding="UTF-8"?>
<svg id="Layer_2" data-name="Layer 2" xmlns="http://www.w3.org/2000/svg" viewBox="0 0 123.34 30">
  <defs>
    <style>
      .cls-1 {
        fill: #101828;
        stroke-width: 0px;
      }
    </style>
  </defs>
  <g id="Layer_1-2" data-name="Layer 1">
    <g>
      <rect class="cls-1" x="112.84" y="6.72" width="4.49" height="16.03"/>
      <path class="cls-1" d="M86.36,22.74c-1.86,0-3.38,1.47-3.38,3.38s1.53,3.38,3.38,3.38,3.38-1.47,3.38-3.38-1.47-3.38-3.38-3.38Z"/>
      <path class="cls-1" d="M104.29,6.77v1.24c-1.21-.81-2.63-1.24-4.38-1.24-4.28,0-7.73,3.52-7.73,8.01s3.45,7.96,7.73,7.96c1.75,0,3.18-.49,4.38-1.24v1.24h4.49V6.77h-4.49ZM104.29,17.22c-.99,1.3-2.3,1.79-3.62,1.79-2.36,0-4-1.95-4-4.22s1.64-4.28,4-4.28c1.26,0,2.58.43,3.62,1.79v4.93h0Z"/>
      <path class="cls-1" d="M118.43.83c2.25,0,4.08,1.83,4.08,4.08v19.63c0,2.25-1.83,4.08-4.08,4.08h-25.49c.29-.79.44-1.64.44-2.5,0-1.92-.72-3.69-2.03-5-1.12-1.11-2.57-1.8-4.16-1.98V4.91c0-2.25,1.83-4.08,4.08-4.08h27.16M118.43,0h-27.16c-2.71,0-4.91,2.2-4.91,4.91v15.02c3.49,0,6.19,2.68,6.19,6.19,0,1.24-.34,2.38-.94,3.33h26.82c2.71,0,4.91-2.2,4.91-4.91V4.91c0-2.71-2.2-4.91-4.91-4.91h0Z"/>
      <g>
        <path class="cls-1" d="M13.48,17.65l8.06-8.66h-7.5l-8.02,8.7V0H0v29.92h6.02v-4.33l3.34-3.54,5.5,7.87h7.58l-8.97-12.27h0Z"/>
        <path class="cls-1" d="M50.33,11.65v-2.67h-5.93v20.94h5.93v-12.3c1.71-1.89,3.97-2.84,7.17-2.96v-5.68c-3.03,0-5.33.95-7.17,2.66h0Z"/>
        <path class="cls-1" d="M24.52,11.95c3.27-3.2,8.1-3.92,12.15-1.83.91.46,1.76,1.11,2.55,1.83,2.22,2.16,3.27,5.03,3.13,7.91-.26-1.7-1.11-3.33-2.42-4.64-3.4-3.4-8.88-3.4-12.28,0-2.29,2.29-2.29,6.08,0,8.43.85.85,1.89,1.44,3,1.63-2.22.2-4.51-.52-6.2-2.22-3.07-3.01-3.07-7.98-.06-10.98l.06-.06.06-.06h0Z"/>
        <path class="cls-1" d="M39.21,26.93c-1.96,1.96-4.64,3.07-7.38,3.07s-5.42-1.11-7.44-3.07c-1.96-1.96-3.07-4.64-3.07-7.45v-.52c.26,1.7,1.11,3.4,2.42,4.71,1.63,1.63,3.79,2.55,6.14,2.55,2.02,0,3.98-.72,5.49-1.96.2-.2.46-.39.65-.59l.06-.06c2.29-2.35,2.29-6.02,0-8.3-.78-.78-1.7-1.31-2.74-1.57h.52c2.09,0,3.98.85,5.42,2.35,2.87,2.94,2.94,7.65.13,10.66,0,0,0,.06-.06.06l-.13.13h0Z"/>
        <path class="cls-1" d="M28.11,15.73l.03-.02s-.01.01-.02.02h0s0,0,0,0Z"/>
        <path class="cls-1" d="M39.14,26.85h.01s-.04.03-.04.03l.03-.03Z"/>
        <g>
          <path class="cls-1" d="M68.67,24.96c-2.9,0-4.42-1.57-4.99-3.66-.14-.49-.32-1.38-.25-2.68.14-2.68,1.75-5.53,5.82-5.53,2.48,0,4.58.9,6.23,2.67,1.63,1.74,2.34,3.83,2.63,4.99.08-.6.12-1.2.12-1.81,0-6.15-4.2-10.17-9.84-10.17-6.22,0-10.46,4.44-10.46,10.58s4.28,10.55,10.62,10.55c4.66,0,8.36-2.62,9.43-6.44h-5.96c-.62,1-1.73,1.5-3.34,1.5h0Z"/>
          <path class="cls-1" d="M70.67,14.13c1.02.62,1.67,1.74,1.87,3.28h-8c-.14.52-.19.98-.21,1.27-.05.98.05,1.69.15,2.13h12.7c-.78-2.98-2.87-6.05-6.52-6.68Z"/>
        </g>
      </g>
    </g>
  </g>
</svg>